<?xml version="1.0" encoding="UTF-8" standalone="no"?>
<!DOCTYPE svg PUBLIC "-//W3C//DTD SVG 1.1//EN" "http://www.w3.org/Graphics/SVG/1.1/DTD/svg11.dtd">
<svg width="100%" height="100%" viewBox="0 0 260 260" version="1.1" xmlns="http://www.w3.org/2000/svg" xmlns:xlink="http://www.w3.org/1999/xlink" xml:space="preserve" style="fill-rule:evenodd;clip-rule:evenodd;stroke-linejoin:round;stroke-miterlimit:1.41421;">
    <path d="M58.5 22.1002C56.55 22.1002 56.55 22.1002 54.6 22.1002C52.65 20.1502 48.75 20.1502 44.85 22.1002C40.95 22.1002 33.15 26.0002 31.2 29.9002C31.2 29.9002 29.25 31.8502 29.25 33.8002C29.25 37.7002 29.25 41.6002 29.25 45.5002C29.25 55.2502 29.25 66.9502 29.25 76.7002C29.25 111.8 29.25 148.85 29.25 184.6C29.25 192.4 29.25 204.1 29.25 213.85C29.25 217.75 29.25 221.65 29.25 225.55C31.2 229.45 33.15 231.4 37.05 233.35C46.8 239.2 60.45 237.25 66.3 229.45C68.25 227.5 68.25 225.55 68.25 225.55C68.25 221.65 68.25 215.8 68.25 208V48.1002C68.25 42.2502 68.25 38.3502 66.3 30.5502C66.3 26.0002 62.4 24.0502 58.5 22.1002Z" fill="#3C3C3C"/>
    <path d="M118.95 22.0999L113.1 24.0499C109.2 27.9499 107.25 31.8499 105.3 35.7499C105.3 39.6499 107.25 45.4999 111.15 51.3499C113.1 53.2999 115.05 53.2999 117 55.2499C118.95 55.2499 120.9 55.2499 120.9 57.1999H128.7C150.15 57.1999 171.6 57.1999 191.1 57.1999H206.7C210.6 57.1999 212.55 57.1999 214.5 57.1999C219.05 55.8999 221 53.9499 224.9 51.9999C224.9 50.0499 224.9 48.0999 226.85 48.0999C226.85 46.1499 226.85 46.1499 226.85 44.1999V35.7499C226.85 33.7999 226.85 33.7999 224.9 31.8499C222.95 27.9499 221 25.9999 219.05 24.0499C219.05 22.0999 217.1 20.1499 213.2 20.1499C207.35 20.1499 199.55 20.1499 195.65 20.1499C187.85 20.1499 176.15 20.1499 166.4 20.1499H141.05C131.3 20.1499 124.8 20.1499 118.95 22.0999Z" fill="#3C3C3C"/>
    <path d="M120.9 109.85C120.9 109.85 118.95 109.85 117 111.8C113.1 111.8 111.15 113.75 111.15 115.7C105.3 125.45 107.25 137.15 115.05 143C117 143 117 143 118.95 144.95C122.85 146.9 128.7 146.9 134.55 144.95H163.8C169.65 144.95 177.45 144.95 183.3 144.95C185.25 144.95 189.15 143 189.15 141.05C193.05 141.05 193.05 137.15 195 133.25C195 131.3 195 131.3 195 129.35V125.45C195 121.55 191.1 119.6 189.15 115.7C189.15 115.7 185.25 111.8 183.3 111.8C177.45 111.8 173.55 109.85 165.75 109.85C156 109.85 142.35 109.85 132.6 109.85C128.7 109.85 122.85 109.85 120.9 109.85Z" fill="#3C3C3C"/>
    <path d="M137.15 201.5C129.35 201.5 117.65 199.55 111.8 205.4C109.85 207.35 107.9 209.3 107.9 209.3C107.9 209.3 105.95 211.25 107.9 211.25C107.9 215.15 105.95 221 107.9 226.85C107.9 226.85 109.85 228.8 109.85 230.75C111.8 232.7 113.75 234.65 117.65 236.6C119.6 236.6 123.5 236.6 125.45 236.6H205.4C211.25 236.6 215.15 236.6 222.95 232.7C226.85 230.75 228.8 226.85 230.75 221V215.15C230.75 215.15 230.75 213.2 230.75 211.25V209.3L228.8 205.4L224.9 201.5L221 199.55H211.25C203.45 199.55 195.65 199.55 187.85 199.55C187.85 201.5 137.15 201.5 137.15 201.5Z" fill="#3C3C3C"/>
</svg>
